<?xml version="1.0" standalone="no"?>
<!DOCTYPE svg PUBLIC "-//W3C//DTD SVG 20010904//EN"
 "http://www.w3.org/TR/2001/REC-SVG-20010904/DTD/svg10.dtd">
<svg version="1.0" xmlns="http://www.w3.org/2000/svg"
 width="454.000000pt" height="454.000000pt" viewBox="0 0 454.000000 454.000000"
 preserveAspectRatio="xMidYMid meet">
<metadata>
Created by potrace 1.14, written by Peter Selinger 2001-2017
</metadata>
<g transform="translate(0.000000,454.000000) scale(0.100000,-0.100000)"
fill="#000000" stroke="none">
<path d="M2006 4479 c-395 -45 -796 -214 -1116 -469 -178 -142 -378 -370 -500
-570 -440 -723 -420 -1649 51 -2353 352 -526 912 -873 1549 -958 139 -19 440
-16 580 5 467 70 874 269 1208 591 194 186 336 381 452 620 151 309 220 608
220 951 0 183 -12 305 -47 469 -187 894 -944 1592 -1851 1709 -131 17 -422 20
-546 5z m493 -321 c5 -18 12 -46 15 -63 4 -16 9 -41 11 -55 3 -14 10 -61 16
-105 6 -44 14 -84 18 -90 3 -5 6 -30 6 -55 0 -41 -2 -45 -27 -48 -24 -3 -28 1
-38 40 -6 24 -13 49 -15 56 -6 16 -79 16 -93 -1 -6 -6 -14 -25 -17 -40 -10
-37 -42 -54 -62 -34 -14 14 -12 25 17 109 17 51 43 135 56 187 31 119 38 131
74 131 23 0 30 -6 39 -32z m-292 9 c26 -26 42 -406 18 -413 -32 -11 -39 16
-51 181 -6 91 -14 168 -18 172 -3 4 -13 0 -21 -8 -15 -15 -23 -150 -10 -182
11 -25 0 -120 -17 -146 -14 -24 -49 -37 -73 -27 -22 8 -18 51 6 67 24 17 25
36 14 216 l-8 133 24 9 c28 11 124 9 136 -2z m597 -30 c32 -8 55 -21 67 -37
17 -24 17 -29 3 -100 -9 -41 -22 -82 -30 -90 -8 -8 -40 -17 -72 -20 l-57 -5
-19 -77 c-19 -79 -32 -95 -60 -75 -15 11 -14 25 19 162 52 223 63 255 83 254
9 0 39 -6 66 -12z m-951 -14 c3 -10 6 -45 7 -77 0 -33 3 -63 5 -66 3 -4 -1
-21 -7 -38 -10 -26 -9 -34 5 -50 32 -35 88 -135 85 -151 -2 -9 -13 -17 -25
-19 -17 -3 -31 11 -67 65 -48 71 -53 68 -35 -18 9 -43 9 -54 -4 -66 -31 -31
-49 -2 -78 124 -45 196 -55 271 -38 288 23 23 39 3 59 -71 24 -92 42 -92 53 1
4 39 10 76 12 83 6 18 23 15 28 -5z m1225 -90 c2 -13 -8 -53 -23 -89 -15 -36
-24 -68 -21 -71 7 -7 83 75 102 110 15 28 44 37 44 13 0 -7 -7 -33 -16 -57 -8
-24 -24 -82 -34 -129 -22 -104 -56 -196 -74 -203 -8 -3 -21 2 -30 12 -17 18
-13 40 21 121 9 19 22 53 30 75 l14 40 -37 -35 c-61 -58 -83 -84 -84 -101 0
-26 -46 -70 -65 -62 -23 8 -17 42 34 183 48 133 71 190 85 208 15 20 51 10 54
-15z m-1606 4 c7 -8 38 -49 68 -91 30 -42 81 -112 112 -156 58 -80 65 -111 30
-125 -12 -5 -28 6 -53 35 l-35 41 -40 -13 c-39 -13 -39 -14 -39 -65 0 -58 -13
-78 -43 -69 -20 7 -22 19 -37 171 -2 17 -10 68 -19 114 -21 109 -21 147 2 160
23 14 38 13 54 -2z m-194 -172 c23 -43 64 -113 91 -155 65 -98 78 -127 63
-142 -18 -18 -38 -3 -82 61 -22 34 -43 61 -46 61 -3 0 -3 -18 1 -40 6 -36 4
-41 -19 -52 -24 -10 -30 -8 -56 17 -39 37 -38 26 6 -52 37 -66 39 -93 6 -93
-26 0 -31 7 -96 134 -31 61 -62 117 -70 125 -7 9 -23 33 -35 53 -18 30 -20 41
-11 58 6 11 17 20 24 20 7 0 45 -32 85 -71 40 -39 75 -68 77 -66 3 2 -8 48
-23 102 -27 96 -27 97 -8 111 33 24 48 12 93 -71z m2110 36 c2 -13 -5 -35 -15
-50 -22 -31 -58 -110 -52 -115 2 -2 14 -7 26 -10 19 -6 29 3 69 64 30 45 53
70 63 68 27 -5 23 -32 -18 -103 -22 -39 -64 -116 -93 -172 -52 -103 -65 -117
-93 -107 -24 10 -18 36 25 106 42 70 43 92 7 102 -25 6 -37 -6 -69 -69 -37
-73 -79 -99 -91 -56 -4 18 94 206 149 286 12 17 29 43 38 58 20 33 50 32 54
-2z m-1560 -433 c18 -18 16 -172 -2 -188 -20 -15 -56 -9 -70 12 -14 23 0 35
24 20 28 -17 30 -16 30 17 0 23 -5 30 -22 33 -13 2 -23 10 -23 18 0 8 10 16
23 18 14 2 22 10 22 22 0 22 -16 35 -25 20 -9 -14 -35 -12 -35 3 0 19 21 37
45 37 12 0 26 -5 33 -12z m94 -10 c2 -42 3 -47 10 -53 4 -4 12 12 19 34 7 23
15 39 18 36 8 -9 0 -78 -11 -92 -5 -7 -6 -18 -1 -25 19 -30 31 -78 20 -85 -11
-7 -36 23 -38 46 -1 9 -4 3 -8 -14 -3 -17 -13 -30 -21 -30 -12 0 -16 17 -18
80 -3 86 3 125 18 125 6 0 11 -10 12 -22z m187 8 c17 -21 19 -160 2 -180 -17
-20 -45 -21 -61 -1 -17 20 -18 159 -1 179 17 20 45 21 60 2z m151 -1 c0 -10
-10 -15 -28 -15 -21 0 -28 -5 -28 -19 0 -13 9 -21 28 -25 26 -5 28 -9 28 -55
0 -58 -19 -84 -59 -79 -26 3 -26 3 -29 106 l-3 102 46 0 c33 0 45 -4 45 -15z
m61 -30 c6 -25 15 -45 19 -45 4 0 11 20 14 45 5 30 12 45 22 45 16 0 15 -22
-10 -145 -11 -54 -14 -60 -39 -63 -32 -4 -37 17 -7 36 17 10 19 16 9 34 -15
28 -38 126 -31 133 10 9 12 6 23 -40z m184 36 c3 -6 -2 -14 -12 -19 -15 -9
-17 -23 -14 -96 2 -73 0 -86 -13 -86 -13 0 -16 13 -18 58 -1 31 -2 70 -3 86
-1 15 -9 32 -18 38 -26 14 -10 28 33 28 21 0 41 -4 45 -9z m65 -31 c0 -49 15
-53 24 -5 11 56 23 49 31 -18 13 -108 12 -131 -7 -135 -15 -3 -18 4 -18 45 -1
41 -2 45 -12 28 -6 -10 -14 -33 -18 -50 -10 -50 -25 -30 -30 42 -7 89 -1 133
16 133 10 0 14 -13 14 -40z m142 18 c2 -42 3 -47 10 -53 4 -4 12 12 19 34 7
23 15 39 18 36 8 -9 0 -78 -11 -92 -5 -7 -6 -18 -1 -25 19 -30 31 -78 20 -85
-11 -7 -36 23 -38 46 -1 9 -4 3 -8 -14 -3 -17 -13 -30 -21 -30 -12 0 -16 17
-18 80 -3 86 3 125 18 125 6 0 11 -10 12 -22z m-1124 -74 c67 -18 -25 -49
-122 -40 -139 13 -177 19 -169 27 14 13 249 24 291 13z m1645 -13 c22 -22
-273 -35 -308 -14 -19 11 -19 12 5 22 29 13 290 5 303 -8z m-2174 -118 c-32
-99 -46 -122 -85 -141 -31 -14 -36 -14 -44 -2 -7 11 -10 7 -10 -15 -1 -16 -12
-57 -24 -90 l-24 -60 -16 37 c-9 21 -16 55 -16 76 0 41 33 149 51 167 7 7 8 5
4 -7 -4 -9 -1 -34 6 -55 l12 -38 17 53 c10 29 28 65 41 79 37 40 103 85 107
74 2 -6 -6 -41 -19 -78z m2459 32 c66 -61 85 -96 80 -146 -8 -82 -92 -18 -127
96 -12 39 -24 78 -27 88 -9 30 13 19 74 -38z m163 -184 c11 -44 10 -60 -2 -94
-8 -22 -19 -42 -25 -44 -5 -2 -20 27 -32 64 -21 64 -22 71 -7 112 8 24 15 55
16 70 1 24 2 22 19 -14 11 -22 25 -64 31 -94z m-2657 -46 c-27 -41 -51 -64
-86 -81 -26 -13 -48 -22 -48 -20 0 19 44 117 57 128 20 17 107 45 111 36 2 -3
-14 -32 -34 -63z m2511 49 c25 -9 48 -26 58 -44 23 -38 48 -110 39 -110 -27 1
-93 55 -129 105 -46 66 -52 81 -25 70 9 -4 35 -14 57 -21z m-1263 -11 c8 -10
19 -31 26 -46 23 -53 69 -47 84 11 10 37 30 41 52 10 26 -36 20 -90 -14 -136
-17 -23 -38 -47 -48 -53 -12 -8 -17 -20 -14 -35 4 -20 0 -24 -19 -24 -13 0
-28 4 -34 8 -18 13 -16 32 4 32 13 0 6 13 -32 50 -48 49 -49 51 -45 99 3 27 1
56 -4 65 -19 34 18 49 44 19z m-1429 -110 c20 -37 21 -72 6 -128 -19 -73 -19
-73 -45 -30 -22 35 -25 48 -20 105 3 36 11 83 17 105 l12 40 7 -30 c4 -16 14
-44 23 -62z m2893 1 c18 -83 12 -130 -25 -175 l-18 -23 -17 73 -17 74 28 63
c15 35 28 64 30 64 1 0 9 -34 19 -76z m-2756 -55 c-18 -35 -42 -75 -54 -87
-21 -24 -75 -57 -81 -50 -6 6 42 142 51 145 5 2 32 16 59 31 28 16 51 27 53
26 2 -1 -11 -31 -28 -65z m2605 31 c30 0 63 -41 79 -100 10 -34 15 -64 13 -67
-3 -2 -24 8 -47 23 -30 20 -51 46 -76 96 -41 81 -43 96 -8 69 15 -12 32 -21
39 -21z m485 -112 c34 -72 38 -116 12 -148 l-18 -23 -23 29 c-19 24 -22 39
-20 93 3 68 9 111 16 111 2 0 17 -28 33 -62z m-3569 10 c0 -24 3 -56 5 -71 3
-16 -2 -41 -10 -58 -18 -36 -7 -37 24 -4 13 14 25 23 27 22 1 -2 -2 -30 -8
-63 -12 -64 -47 -120 -76 -121 -46 -1 -83 68 -83 157 l0 44 30 -34 c17 -19 33
-47 36 -62 7 -30 19 -30 27 1 3 13 0 18 -8 15 -19 -8 -47 60 -39 93 10 41 53
123 64 123 6 0 10 -19 11 -42z m320 -131 l0 -42 14 45 c13 38 23 50 74 81 l59
37 -25 -77 c-21 -60 -35 -85 -72 -121 l-46 -45 -6 40 -6 40 -2 -37 c0 -21 -4
-38 -8 -38 -5 0 -21 19 -38 43 -27 38 -30 49 -29 117 0 41 3 88 7 103 7 27 9
25 42 -38 23 -43 35 -80 36 -108z m2967 23 c-3 -54 -9 -72 -32 -103 -16 -21
-31 -36 -33 -33 -3 2 -9 37 -14 76 -9 71 -8 72 29 140 l37 69 8 -42 c4 -23 6
-71 5 -107z m-140 38 c22 -11 34 -28 41 -55 13 -51 20 -123 12 -123 -4 0 -25
17 -47 39 -29 27 -49 60 -67 110 -34 91 -34 98 2 69 16 -12 42 -31 59 -40z
m-1198 6 c38 -8 110 -75 109 -101 0 -12 -2 -13 -6 -5 -6 15 -72 -113 -73 -140
0 -22 -40 -46 -40 -24 0 9 -7 12 -21 9 -20 -6 -21 -5 -5 26 l17 31 -43 0 c-24
0 -60 3 -81 7 -38 6 -39 5 -36 -23 3 -31 -6 -54 -22 -54 -6 0 -8 8 -5 18 3 9
2 23 -3 30 -6 10 -10 9 -14 -7 -3 -13 -13 -21 -27 -21 -21 0 -21 1 -7 23 22
34 9 48 -36 38 -44 -10 -117 5 -117 25 0 7 9 18 20 24 24 13 26 37 3 62 -15
17 -15 18 7 18 12 0 37 9 55 20 67 41 228 63 325 44z m1691 -112 c-6 -52 -13
-69 -39 -95 l-32 -32 0 54 c0 45 6 63 33 102 17 26 35 45 39 41 4 -4 3 -35 -1
-70z m-81 -68 l0 -58 -29 28 c-20 19 -34 46 -40 78 -19 87 -16 92 29 48 37
-37 40 -43 40 -96z m-3295 21 c26 -34 31 -48 35 -122 3 -46 3 -83 -1 -83 -12
0 -68 67 -78 93 -6 16 -11 65 -11 110 1 69 3 79 13 61 7 -11 26 -38 42 -59z
m3052 47 c2 -9 1 -50 -3 -91 -6 -71 -8 -77 -50 -120 l-44 -46 0 67 c0 78 10
109 50 155 17 19 30 41 30 50 0 20 13 9 17 -15z m-2902 -87 c-10 -47 -26 -86
-42 -105 -13 -17 -20 -30 -15 -30 6 0 20 14 32 31 12 16 24 28 27 25 2 -2 1
-41 -3 -85 -5 -65 -12 -90 -36 -128 -23 -35 -32 -43 -38 -32 -15 27 -21 114
-11 142 8 20 7 26 -2 24 -9 -1 -12 19 -11 73 l2 75 53 47 c29 26 55 45 57 43
2 -2 -3 -38 -13 -80z m2740 39 l50 -44 3 -83 4 -82 -32 30 c-40 37 -54 65 -70
135 -6 30 -14 63 -17 73 -7 27 8 20 62 -29z m-3111 -71 c-3 -38 -15 -83 -25
-101 -23 -41 -4 -32 21 10 l18 30 7 -64 c5 -48 3 -73 -9 -101 -19 -47 -12 -48
12 -1 l19 37 12 -75 c6 -41 9 -83 6 -94 -3 -10 1 -6 9 11 l14 29 21 -69 c15
-47 20 -82 16 -105 -9 -47 2 -34 13 16 l8 39 28 -54 c15 -29 31 -72 36 -95 l9
-41 -2 38 c-2 20 0 36 5 35 18 -7 88 -115 94 -146 7 -38 43 -66 112 -84 23 -7
42 -16 42 -20 0 -14 -24 -8 -80 19 -41 19 -68 26 -107 24 -33 -1 -64 4 -85 15
-35 18 -111 75 -106 79 2 2 33 0 70 -4 68 -7 75 -1 36 27 -28 21 -130 160
-142 196 -9 27 -15 32 -31 25 -11 -4 -15 -8 -9 -8 6 -1 28 -26 48 -56 40 -60
34 -67 -32 -44 -41 14 -122 124 -108 147 3 5 -8 34 -25 67 -38 76 -38 94 0 63
17 -12 41 -31 56 -41 14 -10 33 -36 42 -58 20 -52 26 -45 8 9 -8 22 -12 48 -9
56 4 11 0 14 -19 11 -43 -8 -89 33 -114 100 -35 95 -31 103 26 55 27 -23 53
-55 58 -73 l11 -32 -1 43 c-1 29 -6 42 -16 42 -8 0 -28 11 -46 24 -31 24 -45
57 -60 146 l-6 35 45 -47 c26 -26 46 -57 47 -70 1 -18 3 -15 11 11 7 27 64
110 76 111 1 0 0 -30 -4 -67z m3507 -66 c1 -56 4 -54 14 6 7 43 85 132 85 97
0 -61 -23 -121 -58 -151 -24 -21 -37 -28 -40 -19 -3 9 -6 9 -12 0 -16 -26 -53
59 -58 133 l-5 72 37 -43 c31 -38 36 -51 37 -95z m-1922 37 c-6 -7 6 -19 34
-35 39 -23 51 -24 196 -24 l153 0 28 -33 c38 -46 47 -104 20 -140 -11 -15 -22
-49 -26 -77 -8 -76 -13 -95 -25 -95 -7 0 -9 11 -7 25 7 33 -8 32 -16 -1 -4
-14 -12 -23 -19 -21 -12 5 -12 8 3 59 6 21 4 33 -10 50 -15 19 -29 23 -97 26
-100 4 -114 -5 -121 -82 -3 -37 -9 -56 -18 -56 -20 0 -28 21 -25 63 2 34 -3
45 -38 81 -24 25 -52 69 -69 111 -28 70 -29 70 -70 73 -32 2 -42 7 -42 21 0
30 62 66 113 66 31 0 43 -3 36 -11z m1696 -60 c-12 -100 -32 -150 -73 -183
-20 -17 -40 -31 -45 -31 -9 0 -2 58 14 122 6 23 27 55 54 82 25 24 45 49 45
55 0 6 3 11 6 11 4 0 3 -25 -1 -56z m-3010 -139 c8 -43 12 -81 9 -86 -2 -4 0
-16 5 -26 16 -28 60 -143 55 -143 -3 0 -26 11 -52 24 -51 26 -73 56 -103 142
-28 85 -25 91 27 45 42 -36 64 -49 64 -37 0 2 -15 14 -34 26 -45 27 -75 91
-83 175 l-6 67 51 -54 c48 -50 53 -61 67 -133z m2843 134 c37 -44 42 -56 42
-98 0 -55 -9 -111 -19 -111 -3 0 -19 20 -34 44 -22 35 -29 62 -35 130 -4 47
-5 86 -2 85 3 0 24 -23 48 -50z m346 -20 c25 -35 28 -47 23 -87 l-6 -47 15 41
c10 27 32 56 63 82 l49 41 -9 -40 c-5 -23 -16 -56 -23 -74 -16 -37 -73 -85
-102 -85 -15 0 -22 -11 -30 -42 -6 -24 -14 -52 -18 -63 -4 -11 5 4 20 33 17
34 38 58 58 69 17 8 42 25 54 37 l24 21 -20 -53 c-28 -74 -46 -98 -90 -122
-25 -14 -29 -19 -12 -14 14 4 31 11 38 17 26 21 24 -4 -4 -50 -33 -53 -85 -93
-121 -93 l-25 0 23 38 c12 20 31 47 41 58 12 14 16 24 9 28 -6 4 -20 -13 -32
-36 -12 -24 -29 -54 -37 -67 -15 -22 -16 -22 -23 -5 -6 15 -8 14 -8 -8 -1 -17
-15 -43 -36 -67 -53 -58 -42 -61 13 -2 35 37 55 51 76 51 15 0 36 5 48 11 34
18 32 1 -5 -44 -60 -74 -157 -103 -177 -54 -8 21 -9 21 -9 1 -1 -11 -6 -25
-12 -31 -9 -9 -7 -11 7 -8 10 2 43 6 73 9 l54 5 -24 -25 c-13 -14 -43 -37 -67
-51 -35 -21 -52 -25 -92 -21 -40 4 -60 0 -107 -23 -59 -29 -83 -35 -83 -21 0
4 30 18 67 32 65 24 67 26 83 76 14 43 82 144 97 144 3 0 3 -9 0 -20 -3 -11
-1 -23 4 -26 5 -3 9 6 9 20 0 25 49 136 60 136 3 0 7 -12 8 -27 3 -40 12 -41
12 -1 0 36 26 126 41 143 5 5 10 -1 10 -15 1 -14 5 4 10 40 4 36 11 76 14 90
6 23 8 21 25 -18 11 -23 22 -42 25 -42 3 0 -1 13 -10 30 -15 30 -22 170 -7
170 4 0 20 -19 36 -41z m-3066 -229 c-2 -36 -7 -74 -11 -85 -4 -11 1 -3 11 17
9 21 19 38 22 38 3 0 16 -38 29 -84 19 -72 21 -92 13 -133 l-11 -48 42 -44
c23 -24 68 -63 100 -87 31 -23 53 -45 47 -49 -5 -3 -16 -2 -24 2 -20 11 -105
92 -141 133 -21 25 -45 39 -80 48 -58 15 -90 44 -139 126 -42 70 -48 100 -13
69 33 -31 127 -73 127 -57 0 7 3 21 6 31 5 15 4 16 -5 3 -15 -20 -25 -4 -47
77 l-17 62 39 59 39 59 8 -36 c4 -20 6 -65 5 -101z m2672 121 c0 -4 14 -25 30
-46 21 -27 30 -48 29 -74 0 -43 -31 -127 -46 -124 -5 1 -10 -11 -10 -26 0 -28
1 -28 20 -10 11 10 32 21 48 24 15 4 40 15 54 26 45 36 23 -24 -41 -112 -32
-44 -89 -79 -128 -79 -8 0 -55 -40 -104 -90 -50 -49 -97 -90 -106 -90 -27 0
-18 16 24 44 22 14 64 51 95 81 l55 56 -6 54 c-5 42 -1 76 16 140 l23 85 23
-47 c26 -55 32 -54 9 1 -12 28 -14 55 -9 116 4 44 11 80 15 80 5 0 9 -4 9 -9z
m199 -53 c-14 -60 -47 -133 -72 -157 -24 -22 -101 -58 -96 -44 2 5 15 40 29
77 21 59 32 74 77 107 28 21 54 43 58 49 12 19 13 10 4 -32z m-3459 -118 c11
-21 20 -47 20 -57 0 -15 2 -15 14 3 14 18 15 16 22 -26 4 -25 9 -39 12 -31 6
17 32 -41 33 -73 0 -20 1 -20 8 -1 8 18 10 16 26 -17 10 -20 21 -35 25 -33 3
2 14 -9 24 -26 9 -16 23 -29 30 -29 8 0 21 -11 30 -25 9 -14 22 -25 28 -25 6
0 27 -12 46 -27 20 -15 32 -21 28 -14 -11 17 43 -11 80 -42 16 -14 38 -27 49
-30 20 -5 20 -5 -1 -6 -11 0 -29 -8 -40 -16 -31 -23 -84 -17 -159 20 -62 30
-67 34 -40 36 29 1 29 2 -7 8 -43 9 -91 38 -83 51 3 5 -3 11 -13 14 -21 7 -71
56 -57 56 5 0 -7 16 -26 36 l-34 35 30 -6 30 -7 -28 16 c-29 16 -66 54 -67 69
0 4 9 3 21 -3 11 -7 23 -9 26 -7 2 3 -5 8 -17 12 -19 6 -60 59 -60 77 0 4 17
-2 38 -14 l37 -21 -26 24 c-29 26 -41 62 -32 97 3 12 7 22 9 22 2 0 13 -18 24
-40z m3850 -60 c-11 -20 -10 -21 10 -10 20 11 21 10 10 -12 -7 -13 -22 -33
-34 -46 -19 -22 -19 -23 -1 -16 17 7 17 5 -3 -24 -13 -17 -27 -34 -32 -37 -5
-3 -7 -11 -4 -18 6 -17 -35 -55 -72 -67 l-29 -10 28 4 28 3 -27 -28 c-15 -16
-35 -29 -43 -29 -13 0 -13 -2 -3 -9 20 -12 -46 -51 -89 -52 l-34 -1 30 -8 30
-7 -37 -16 c-21 -10 -42 -17 -48 -17 -5 0 -10 -4 -10 -9 0 -19 -91 -25 -124
-8 -17 9 -40 18 -51 20 -16 4 -14 5 6 6 14 0 34 10 45 22 18 20 65 49 79 49 3
0 3 -6 -1 -12 -4 -7 9 2 29 21 20 19 40 32 43 28 3 -3 18 8 32 24 19 23 27 27
33 17 7 -11 9 -11 9 0 0 18 41 75 48 68 3 -3 13 12 23 35 10 22 23 38 28 35 5
-3 12 6 16 22 3 15 12 34 19 42 8 8 17 29 21 45 6 25 8 27 14 12 6 -17 9 -15
20 10 7 15 20 39 29 53 l17 25 3 -42 c2 -23 -2 -52 -8 -63z m-2253 59 c6 -6
35 -17 65 -24 29 -7 52 -17 50 -24 -1 -8 71 -10 279 -7 258 4 282 3 298 -13
15 -15 19 -43 24 -151 3 -74 2 -141 -3 -150 -7 -11 -10 -4 -11 25 l-1 40 -9
-50 c-5 -27 -7 -60 -4 -73 7 -31 -11 -62 -36 -62 -16 0 -19 4 -14 18 4 9 10
25 12 34 7 23 -6 88 -17 88 -4 0 -16 -24 -26 -52 -20 -64 -30 -78 -55 -78 -24
0 -24 9 1 40 13 16 20 41 20 70 0 43 -2 47 -35 59 -27 9 -57 10 -137 1 -57 -6
-104 -13 -106 -15 -2 -2 -4 -36 -5 -77 -2 -68 -4 -73 -24 -73 -12 0 -25 -4
-29 -8 -8 -8 -44 -10 -44 -2 0 3 7 17 16 30 13 19 15 37 9 80 -6 49 -9 55 -30
55 -24 0 -59 35 -70 70 -11 33 -97 80 -147 80 -30 0 -50 6 -59 16 -12 15 -7
23 44 68 l57 51 -22 23 c-12 12 -18 22 -12 22 5 0 15 -5 21 -11z m-1338 -160
c21 -5 54 -27 85 -58 l51 -51 -32 0 c-61 0 -115 34 -165 104 l-21 28 24 -7
c13 -5 39 -12 58 -16z m327 -454 c27 -65 32 -59 -123 -125 -39 -16 -76 -30
-82 -30 -13 0 -51 58 -51 77 0 7 11 20 24 28 29 19 186 85 204 85 7 0 20 -16
28 -35z m2797 -16 c64 -29 117 -56 117 -61 0 -19 -34 -20 -73 0 -23 11 -72 34
-109 51 -42 18 -68 36 -68 46 0 8 3 15 8 15 4 0 60 -23 125 -51z m-1790 -58
c3 -25 5 -75 4 -111 -2 -53 -5 -65 -19 -68 -15 -3 -18 4 -19 40 l0 43 -17 -43
c-9 -23 -21 -41 -27 -39 -12 4 -19 124 -10 182 5 39 7 40 44 41 l39 1 5 -46z
m-407 9 c8 0 14 -4 14 -10 0 -5 -9 -10 -20 -10 -16 0 -20 -7 -20 -30 0 -23 4
-30 20 -30 11 0 20 -7 20 -15 0 -8 -9 -15 -20 -15 -32 0 -27 -48 5 -52 41 -5
34 -23 -11 -26 l-41 -3 -6 43 c-5 40 -1 115 9 147 2 7 11 10 20 7 9 -3 22 -6
30 -6z m96 -37 l12 -48 11 45 c7 29 17 46 28 48 15 3 17 -8 17 -98 0 -77 -3
-101 -12 -98 -7 3 -16 18 -19 34 -4 16 -7 23 -8 15 -1 -8 -8 -11 -21 -8 -15 4
-20 0 -20 -13 0 -19 -17 -36 -27 -26 -7 6 -4 176 3 187 12 20 24 6 36 -38z
m164 37 c23 0 16 -18 -8 -22 -33 -4 -32 -52 0 -56 28 -4 24 -26 -6 -30 -31 -5
-25 -45 7 -52 45 -9 36 -30 -13 -30 l-46 0 0 88 c0 89 10 118 38 107 8 -3 20
-5 28 -5z m218 -32 c-7 -11 5 -48 17 -48 5 0 9 18 9 40 0 29 4 40 15 40 12 0
15 -16 17 -80 0 -44 1 -86 2 -92 1 -7 -7 -14 -16 -16 -15 -3 -18 4 -18 37 0
23 -4 41 -10 41 -5 0 -10 -15 -10 -34 0 -33 -20 -62 -33 -49 -9 9 -9 188 0
197 9 9 34 -24 27 -36z m128 5 c2 -29 8 -39 23 -41 29 -6 35 -14 39 -56 3 -45
-16 -68 -53 -64 -26 3 -26 4 -29 101 -2 58 1 97 7 97 5 0 11 -17 13 -37z m108
-63 c0 -80 -3 -100 -14 -100 -20 0 -21 8 -18 110 3 70 7 90 18 90 11 0 14 -20
14 -100z m106 90 c8 0 14 -4 14 -10 0 -5 -9 -10 -20 -10 -16 0 -20 -7 -20 -30
0 -23 4 -30 20 -30 11 0 20 -7 20 -15 0 -8 -9 -15 -20 -15 -15 0 -20 -7 -20
-25 0 -20 5 -25 25 -25 16 0 25 -6 25 -15 0 -11 -11 -15 -40 -15 -36 0 -40 2
-45 33 -7 38 -1 140 10 157 4 6 14 9 22 6 8 -3 21 -6 29 -6z m214 2 c0 -4 10
-12 23 -17 17 -8 23 -20 25 -54 4 -57 -4 -91 -23 -91 -8 0 -19 -9 -25 -20 -12
-23 -40 -27 -40 -7 0 8 -11 19 -25 25 -23 11 -25 17 -25 77 0 61 2 65 25 71
14 3 25 10 25 15 0 5 9 9 20 9 11 0 20 -3 20 -8z m156 -2 c23 0 16 -18 -8 -22
-35 -5 -37 -45 -3 -58 29 -11 25 -30 -5 -30 -30 0 -22 -44 9 -50 45 -9 36 -30
-13 -30 l-46 0 0 88 c0 89 10 118 38 107 8 -3 20 -5 28 -5z m141 -2 c14 -17
14 -79 1 -95 -6 -7 -19 -13 -29 -13 -13 0 -19 -9 -21 -37 -2 -26 -8 -38 -18
-38 -12 0 -14 15 -11 90 2 50 5 93 8 98 7 12 60 8 70 -5z m78 -39 l11 -44 12
48 c10 36 17 48 29 45 15 -3 17 -17 18 -98 0 -77 -3 -95 -15 -95 -8 0 -17 9
-20 20 -8 30 -50 29 -50 -2 0 -14 -6 -23 -15 -23 -12 0 -15 17 -15 93 0 52 3
97 7 101 14 14 28 -2 38 -45z m127 14 c2 -29 8 -39 23 -41 29 -6 35 -14 39
-56 3 -45 -16 -68 -53 -64 -26 3 -26 4 -29 101 -2 58 1 97 7 97 5 0 11 -17 13
-37z m108 -63 c0 -80 -3 -100 -14 -100 -20 0 -21 8 -18 110 3 70 7 90 18 90
11 0 14 -20 14 -100z m-1752 63 c4 -25 -23 -33 -31 -10 -8 24 -17 0 -19 -56
-2 -57 7 -82 22 -58 4 8 15 11 24 8 14 -5 15 -11 6 -27 -12 -23 -61 -28 -78
-7 -13 15 -13 135 0 160 14 28 72 20 76 -10z m2334 -8 c20 -8 39 -23 43 -34 7
-24 -10 -70 -30 -77 -9 -4 -64 15 -123 41 -124 55 -119 52 -105 66 8 8 23 5
51 -10 l41 -21 22 31 c23 33 32 33 101 4z m-2778 -35 c46 -17 42 -100 -4 -100
-23 0 -24 4 -10 31 19 35 -17 34 -83 -1 -34 -18 -68 -37 -74 -42 -18 -14 -6
-28 22 -28 40 0 41 -29 3 -43 -26 -9 -47 2 -63 32 -21 41 -2 66 90 116 90 50
85 48 119 35z m2558 -42 c0 -7 2 -19 2 -27 1 -8 37 -36 80 -62 43 -26 86 -54
94 -63 14 -14 14 -16 -1 -22 -10 -3 -48 13 -100 45 -70 42 -90 50 -116 45 -39
-8 -40 5 -3 57 28 40 41 48 44 27z m-2443 -118 c28 -38 18 -60 -14 -30 -24 22
-33 21 -67 -8 -16 -13 -16 -16 -1 -39 14 -21 14 -26 2 -33 -9 -6 -21 -2 -37
12 l-23 22 -26 -27 c-25 -25 -26 -27 -10 -45 19 -21 23 -56 5 -50 -6 2 -25 21
-42 41 l-30 38 20 20 c35 35 168 127 185 128 8 1 25 -13 38 -29z m2383 -47
c21 -20 38 -42 38 -48 0 -5 27 -19 60 -29 55 -18 74 -36 51 -50 -5 -3 -28 1
-51 9 -58 20 -59 20 -15 -18 32 -28 35 -34 23 -45 -17 -13 -55 10 -155 95 -75
63 -71 100 4 48 20 -13 39 -22 41 -20 3 3 -7 23 -22 45 -42 64 -31 69 26 13z
m-2307 -51 c6 -4 20 -22 33 -40 31 -44 18 -62 -19 -26 l-28 27 -76 -74 c-79
-77 -98 -89 -111 -68 -5 9 24 43 87 101 52 48 96 88 99 88 3 0 10 -4 15 -8z
m1198 -36 c14 -30 22 -36 62 -42 l47 -6 -33 -34 c-28 -29 -31 -37 -25 -73 3
-23 4 -41 1 -41 -2 0 -20 8 -40 17 -33 16 -37 16 -70 0 -20 -9 -37 -17 -39
-17 -2 0 -1 19 1 43 5 38 2 46 -27 74 l-31 31 46 6 c40 6 48 12 62 42 9 19 20
34 23 34 3 0 14 -15 23 -34z m1049 -87 c68 -95 77 -123 46 -143 -25 -16 -47 7
-31 33 13 21 0 41 -27 41 -24 0 -140 80 -140 96 0 9 17 4 54 -16 30 -17 57
-30 61 -30 4 0 -10 22 -30 50 -34 46 -39 76 -12 67 7 -2 42 -46 79 -98z
m-2098 -10 c40 -31 33 -58 -34 -134 -33 -38 -59 -73 -57 -79 7 -18 -33 -66
-54 -66 -17 0 -20 5 -14 28 4 22 0 33 -19 51 -15 14 -26 19 -31 12 -8 -14 -55
-14 -55 0 0 23 41 67 67 73 18 4 48 30 82 71 29 36 61 65 71 65 9 0 29 -9 44
-21z m1972 -84 c33 -44 64 -75 74 -75 19 0 50 -40 50 -65 0 -18 -13 -19 -39
-3 -27 16 -74 -20 -59 -46 12 -21 4 -46 -16 -46 -20 0 -56 48 -56 75 0 13 -25
55 -55 93 -30 39 -55 76 -55 83 0 19 52 58 77 59 16 0 38 -20 79 -75z m-1833
-60 c-1 -22 -18 -80 -37 -130 -26 -68 -38 -90 -53 -90 -13 0 -17 6 -14 20 8
41 6 58 -11 69 -14 8 -22 8 -35 -2 -31 -22 -44 -25 -56 -13 -8 8 14 34 84 101
52 49 101 88 109 87 11 -2 14 -14 13 -42z m1685 -69 c28 -44 52 -89 52 -100 0
-27 -29 -56 -56 -56 -21 0 -64 41 -64 62 0 5 -13 26 -29 46 -40 51 -46 78 -26
108 12 19 23 24 43 22 21 -2 38 -20 80 -82z m-173 -38 c26 -56 22 -81 -15 -93
-22 -7 -21 -24 6 -77 17 -34 17 -35 -1 -42 -12 -4 -27 18 -61 91 -61 132 -62
138 -27 157 52 28 71 21 98 -36z m-1291 13 c19 -21 18 -62 -1 -69 -7 -2 -17 8
-23 23 -14 36 -27 24 -70 -64 -26 -54 -31 -74 -22 -83 9 -9 16 -7 31 6 19 17
20 17 30 -3 10 -17 8 -23 -12 -36 -31 -20 -85 -3 -93 29 -5 23 68 194 89 208
21 14 53 8 71 -11z m1154 -136 c47 -130 49 -138 25 -133 -11 2 -23 21 -32 48
-34 109 -47 135 -71 138 -16 3 -21 0 -18 -10 62 -165 69 -191 59 -201 -18 -18
-36 10 -71 113 -18 52 -35 101 -37 107 -5 12 65 50 92 52 6 1 29 -51 53 -114z
m-1008 90 c15 -8 30 -20 32 -27 5 -14 -58 -208 -71 -221 -13 -13 -91 2 -98 19
-3 7 11 65 31 129 40 125 46 131 106 100z m164 -45 c37 -14 32 -30 -9 -30 -21
0 -35 -5 -35 -12 0 -7 -3 -23 -6 -34 -5 -17 1 -24 26 -33 27 -9 31 -13 20 -26
-8 -9 -21 -13 -36 -9 -19 5 -24 2 -24 -12 0 -11 -3 -29 -6 -41 -6 -20 -3 -23
25 -23 19 0 34 -6 38 -15 9 -24 -1 -28 -58 -20 l-51 7 6 52 c6 44 30 154 42
194 4 14 33 16 68 2z m564 -12 c-3 -7 -15 -15 -29 -18 -18 -5 -23 -12 -21 -31
4 -42 10 -49 42 -49 39 0 40 -25 1 -38 -26 -9 -28 -13 -22 -44 7 -31 9 -33 43
-30 20 2 39 -1 42 -6 10 -16 -18 -31 -64 -34 -40 -3 -44 -1 -51 27 -14 50 -32
203 -26 220 8 19 91 22 85 3z m-448 -53 c0 -33 4 -45 14 -45 10 0 16 14 18 43
4 59 32 59 36 -1 3 -40 22 -52 22 -13 0 29 27 58 40 44 9 -8 8 -24 -4 -65 -12
-43 -13 -67 -6 -113 9 -58 3 -84 -18 -71 -6 3 -14 21 -17 39 -11 51 -20 55
-25 12 -4 -28 -10 -41 -23 -43 -16 -3 -18 2 -17 35 4 89 -8 95 -30 14 -12 -46
-31 -64 -43 -43 -3 4 3 32 12 63 11 32 15 63 10 75 -10 24 -11 98 -2 107 19
20 33 5 33 -38z m230 -28 c0 -51 17 -39 26 18 7 51 21 67 28 33 21 -106 35
-223 26 -232 -18 -18 -34 12 -38 75 l-5 62 -15 -34 c-8 -19 -14 -45 -13 -59 1
-34 -13 -54 -33 -47 -12 5 -16 21 -17 64 -1 32 -3 82 -5 112 -5 63 11 95 33
65 7 -10 13 -35 13 -57z"/>
<path d="M2432 3978 c-13 -42 -9 -54 20 -60 20 -4 21 -3 12 50 -9 56 -17 59
-32 10z"/>
<path d="M2751 4024 c-12 -61 -6 -78 25 -72 13 2 23 19 33 56 8 29 12 54 10
56 -2 3 -16 7 -30 11 -25 6 -26 4 -38 -51z"/>
<path d="M1489 3843 c5 -43 9 -48 30 -48 35 0 34 15 -2 58 l-33 38 5 -48z"/>
<path d="M2070 3443 c-6 -105 -6 -134 2 -140 6 -3 13 -1 17 5 9 15 1 142 -10
142 -5 0 -9 -3 -9 -7z"/>
<path d="M2210 3346 c0 -14 0 -29 -1 -33 0 -4 4 -9 10 -11 14 -5 15 55 1 63
-6 4 -10 -5 -10 -19z"/>
<path d="M472 2450 c0 -14 2 -19 5 -12 2 6 2 18 0 25 -3 6 -5 1 -5 -13z"/>
<path d="M501 2314 c0 -11 3 -14 6 -6 3 7 2 16 -1 19 -3 4 -6 -2 -5 -13z"/>
<path d="M470 2175 c0 -6 56 -35 67 -35 4 0 -7 9 -25 20 -33 20 -42 24 -42 15z"/>
<path d="M394 2019 c-3 -6 0 -18 9 -26 13 -13 14 -12 10 11 -6 29 -9 31 -19
15z"/>
<path d="M445 1930 c10 -11 20 -20 22 -20 2 0 -2 9 -9 20 -7 11 -17 20 -22 20
-5 0 -1 -9 9 -20z"/>
<path d="M448 1873 c7 -3 16 -2 19 1 4 3 -2 6 -13 5 -11 0 -14 -3 -6 -6z"/>
<path d="M490 1876 c0 -2 7 -9 15 -16 13 -11 14 -10 9 4 -5 14 -24 23 -24 12z"/>
<path d="M560 1810 c35 -24 54 -31 30 -11 -14 11 -29 21 -35 21 -5 0 -3 -5 5
-10z"/>
<path d="M650 1755 c14 -8 30 -14 35 -14 6 0 -1 6 -15 14 -14 8 -29 14 -35 14
-5 0 1 -6 15 -14z"/>
<path d="M4159 2073 c-13 -16 -12 -17 4 -4 9 7 17 15 17 17 0 8 -8 3 -21 -13z"/>
<path d="M4111 1993 c-11 -28 -11 -28 6 -7 10 12 25 24 33 27 10 4 8 6 -6 6
-14 1 -25 -9 -33 -26z"/>
<path d="M4075 1940 c-3 -5 -1 -10 4 -10 6 0 11 5 11 10 0 6 -2 10 -4 10 -3 0
-8 -4 -11 -10z"/>
<path d="M3999 1853 l-24 -26 27 19 c15 10 28 22 28 27 0 12 -5 8 -31 -20z"/>
<path d="M3939 1803 c-13 -15 -12 -15 9 -4 23 12 28 21 13 21 -5 0 -15 -7 -22
-17z"/>
<path d="M3870 1760 c-8 -5 -10 -10 -5 -10 6 0 17 5 25 10 8 5 11 10 5 10 -5
0 -17 -5 -25 -10z"/>
<path d="M3805 1730 c3 -5 8 -10 11 -10 2 0 4 5 4 10 0 6 -5 10 -11 10 -5 0
-7 -4 -4 -10z"/>
<path d="M2638 1964 c-5 -4 -8 -28 -7 -53 l1 -46 9 40 c10 43 9 71 -3 59z"/>
<path d="M2202 1745 c0 -16 2 -22 5 -12 2 9 2 23 0 30 -3 6 -5 -1 -5 -18z"/>
<path d="M858 1527 c-21 -9 -25 -16 -18 -27 8 -12 13 -12 40 1 26 12 29 17 19
26 -10 8 -21 8 -41 0z"/>
<path d="M743 1483 c-18 -7 -16 -33 3 -33 23 0 55 20 49 31 -6 10 -31 11 -52
2z"/>
<path d="M1893 1475 c-3 -9 -3 -18 -1 -21 3 -3 8 4 11 16 6 23 -1 27 -10 5z"/>
<path d="M2148 1367 c-2 -20 0 -37 4 -37 14 0 19 25 10 51 -9 22 -10 21 -14
-14z"/>
<path d="M2518 1409 c-2 -22 -1 -42 3 -45 4 -2 9 14 11 37 2 22 1 42 -3 45 -4
2 -9 -14 -11 -37z"/>
<path d="M2570 1410 c0 -16 0 -33 -1 -37 0 -4 4 -9 10 -11 7 -2 11 12 11 37 0
23 -4 41 -10 41 -5 0 -10 -13 -10 -30z"/>
<path d="M2820 1435 c0 -14 5 -25 10 -25 6 0 10 11 10 25 0 14 -4 25 -10 25
-5 0 -10 -11 -10 -25z"/>
<path d="M3079 1368 c-3 -21 -2 -38 2 -38 13 0 16 14 9 45 l-6 30 -5 -37z"/>
<path d="M3686 1432 c-13 -12 -4 -22 34 -42 48 -24 50 -25 50 -2 0 17 -73 56
-84 44z"/>
<path d="M1227 938 c-42 -47 -53 -65 -45 -75 13 -16 16 -14 77 56 42 48 48 61
37 70 -11 9 -25 -1 -69 -51z"/>
<path d="M3204 966 c-4 -9 9 -36 30 -64 45 -62 62 -76 81 -68 12 4 5 19 -36
71 -59 75 -67 82 -75 61z"/>
<path d="M1382 820 c-13 -11 -21 -24 -17 -30 11 -18 23 -11 34 20 5 17 9 30 8
30 -1 -1 -12 -9 -25 -20z"/>
<path d="M3047 853 c-8 -13 79 -148 97 -151 25 -5 19 16 -24 90 -37 62 -61 81
-73 61z"/>
<path d="M2903 783 c-17 -6 12 -63 32 -63 18 0 19 11 3 45 -12 26 -14 27 -35
18z"/>
<path d="M1782 680 c-8 -21 -8 -32 0 -36 13 -8 38 23 38 48 0 29 -27 21 -38
-12z"/>
<path d="M1742 571 c-10 -27 -2 -41 23 -41 7 0 23 59 18 64 -14 14 -32 4 -41
-23z"/>
</g>
</svg>
